<svg width="22" height="22" viewBox="0 0 22 22" fill="none" xmlns="http://www.w3.org/2000/svg">
<path d="M8.27286 20.0906C8.77494 20.0906 9.18195 19.6836 9.18195 19.1816C9.18195 18.6795 8.77494 18.2725 8.27286 18.2725C7.77078 18.2725 7.36377 18.6795 7.36377 19.1816C7.36377 19.6836 7.77078 20.0906 8.27286 20.0906Z" stroke="#FF800B" stroke-width="2" stroke-linecap="round" stroke-linejoin="round"/>
<path d="M18.2729 20.0906C18.7749 20.0906 19.182 19.6836 19.182 19.1816C19.182 18.6795 18.7749 18.2725 18.2729 18.2725C17.7708 18.2725 17.3638 18.6795 17.3638 19.1816C17.3638 19.6836 17.7708 20.0906 18.2729 20.0906Z" stroke="#FF800B" stroke-width="2" stroke-linecap="round" stroke-linejoin="round"/>
<path d="M1 1H4.63636L7.07273 13.1727C7.15586 13.5913 7.38355 13.9672 7.71595 14.2348C8.04835 14.5024 8.46427 14.6445 8.89091 14.6364H17.7273C18.1539 14.6445 18.5698 14.5024 18.9022 14.2348C19.2346 13.9672 19.4623 13.5913 19.5455 13.1727L21 5.54545H5.54545" stroke="#FF800B" stroke-width="2" stroke-linecap="round" stroke-linejoin="round"/>
</svg>
