<svg width="62" height="62" viewBox="0 0 62 62" fill="none" xmlns="http://www.w3.org/2000/svg">
<circle cx="31" cy="31" r="31" fill="#7E4FF2"/>
<path d="M17.4395 23.5H21.4395L24.1195 36.89C24.2109 37.3504 24.4614 37.764 24.827 38.0583C25.1926 38.3526 25.6502 38.509 26.1195 38.5H35.8395C36.3088 38.509 36.7663 38.3526 37.1319 38.0583C37.4975 37.764 37.748 37.3504 37.8395 36.89L39.4395 28.5H22.4395" stroke="white" stroke-width="2" stroke-linecap="round" stroke-linejoin="round"/>
<path d="M25.5 45.6528C26.0523 45.6528 26.5 45.2051 26.5 44.6528C26.5 44.1005 26.0523 43.6528 25.5 43.6528C24.9477 43.6528 24.5 44.1005 24.5 44.6528C24.5 45.2051 24.9477 45.6528 25.5 45.6528Z" stroke="white" stroke-width="2" stroke-linecap="round" stroke-linejoin="round"/>
<path d="M36.5 45.6528C37.0523 45.6528 37.5 45.2051 37.5 44.6528C37.5 44.1005 37.0523 43.6528 36.5 43.6528C35.9477 43.6528 35.5 44.1005 35.5 44.6528C35.5 45.2051 35.9477 45.6528 36.5 45.6528Z" stroke="white" stroke-width="2" stroke-linecap="round" stroke-linejoin="round"/>
</svg>
