<svg width="63" height="63" viewBox="0 0 63 63" fill="none" xmlns="http://www.w3.org/2000/svg">
<circle cx="31.4287" cy="31.0361" r="31" fill="#FF800B"/>
<path d="M21.0957 37.6421C21.2124 37.8084 21.3488 38.0028 21.5071 38.2603C21.5714 38.3636 21.6399 38.4684 21.7092 38.5745C22.0093 38.941 22.201 39.3843 22.2624 39.8541V40.9361C22.2624 41.5437 22.755 42.0361 23.3625 42.0361H27.7624C28.37 42.0361 28.8625 41.5437 28.8625 40.9361V39.4694C28.8655 39.3341 28.9405 39.2106 29.0594 39.1456C29.7722 38.7791 30.3986 38.2645 30.8964 37.6362H31.0624C31.1944 37.6362 31.3256 37.6186 31.4527 37.5833L32.5922 39.3066C33.1515 40.0789 34.1013 40.4654 35.0407 40.3033C35.2207 40.2727 35.4028 40.3431 35.5152 40.4866L36.2138 41.5183C36.5794 42.0551 37.3107 42.1944 37.848 41.8297L41.9089 39.0152C42.1668 38.8417 42.3449 38.5723 42.4035 38.2668C42.4634 37.9682 42.4025 37.6579 42.2341 37.4041C42.0705 37.0303 42.0196 36.6169 42.0874 36.2145C42.093 36.1192 42.098 36.0247 42.1014 35.9319C42.112 35.615 42.0933 35.303 42.0754 35.0005C42.0686 34.8869 42.0621 34.7729 42.0566 34.6596C41.9931 33.1555 41.5144 31.6983 40.6738 30.4495L38.5256 27.2779C38.0924 26.6087 37.2113 26.3952 36.52 26.792C36.2464 26.9573 36.0351 27.2082 35.9186 27.5058C35.5555 27.2307 35.0847 27.1409 34.6458 27.2633C34.2069 27.3856 33.8504 27.7059 33.682 28.1292C33.352 27.8825 32.9339 27.7856 32.5291 27.8623V21.5028C32.5291 20.6927 31.8725 20.0361 31.0624 20.0361H24.4625C23.6525 20.0361 22.9959 20.6927 22.9959 21.5028V26.3252C22.889 26.2943 22.779 26.2757 22.6681 26.2695H22.6031C22.0499 26.272 21.586 26.6879 21.5232 27.2374C21.4635 27.7435 21.3654 28.2443 21.23 28.7356C21.1484 29.003 21.0487 29.2645 20.9315 29.5181C20.6888 29.9953 20.544 30.5161 20.5054 31.0501C20.4951 31.3654 20.5079 31.7005 20.5202 32.0236C20.5314 32.3242 20.5435 32.6349 20.5363 32.9212C20.5311 33.1144 20.5146 33.4125 20.4967 33.7487C20.4567 34.482 20.4072 35.3943 20.4398 35.83C20.447 36.4908 20.6783 37.1296 21.0957 37.6421ZM33.418 28.8897L33.8291 29.4961C33.8546 29.5321 33.8863 29.5631 33.9229 29.5878C33.9298 29.5925 33.9365 29.5977 33.9437 29.6021C33.9789 29.6239 34.0177 29.6395 34.0582 29.6484H34.0755C34.0944 29.6522 34.1139 29.6546 34.1334 29.6553C34.1493 29.6541 34.1653 29.6517 34.181 29.6484C34.1931 29.6484 34.2045 29.6457 34.2176 29.6432C34.2613 29.6339 34.3026 29.6167 34.3398 29.5921C34.5073 29.4787 34.5513 29.2509 34.438 29.0832C34.2107 28.7479 34.2985 28.2918 34.6339 28.0647C34.9692 27.8375 35.4253 27.9251 35.6524 28.2605L36.0619 28.8728C36.1769 29.0367 36.402 29.0784 36.5678 28.9661C36.7336 28.8538 36.7788 28.6294 36.6692 28.4617C36.5562 28.295 36.5168 28.0891 36.5603 27.8925C36.6037 27.6958 36.7261 27.5256 36.8986 27.4219C37.2567 27.2321 37.7006 27.349 37.9185 27.6906L40.0667 30.8631C40.8309 31.9999 41.2657 33.3259 41.3229 34.6944C41.3284 34.8117 41.3353 34.9287 41.3424 35.046C41.36 35.3444 41.3768 35.6264 41.3672 35.9087C41.3644 35.9968 41.3592 36.0863 41.3541 36.1761C41.2709 36.731 41.3622 37.2982 41.6155 37.799C41.6818 37.8964 41.7063 38.0162 41.6834 38.1319C41.6606 38.2473 41.5925 38.3489 41.4941 38.4138L37.4337 41.2269C37.2318 41.3631 36.9581 41.3104 36.8209 41.1091L36.116 40.0678C35.8484 39.6987 35.3971 39.5102 34.9466 39.5795C34.2831 39.7091 33.604 39.4456 33.2016 38.9023L31.9124 36.9512V36.9472C31.9124 36.945 31.9087 36.9438 31.9077 36.9417L30.9297 35.4617C30.6609 35.0646 30.6312 34.3857 31.0151 34.1254L31.4225 33.8133L33.8858 37.4301C33.958 37.5424 34.0852 37.6065 34.2183 37.5978C34.3514 37.589 34.4694 37.5088 34.5261 37.3881C34.5829 37.2673 34.5698 37.1253 34.4915 37.0172L31.848 33.1379C31.8382 33.1082 31.8245 33.0798 31.8072 33.0538C31.7948 33.0407 31.7813 33.0285 31.7672 33.0172L27.5219 26.7873C27.3754 26.5701 27.3559 26.2911 27.4707 26.0556C27.5857 25.8201 27.8173 25.6639 28.0786 25.6456C28.34 25.6273 28.5912 25.7498 28.7378 25.967L31.8035 30.4294C31.8772 30.5388 32.0039 30.6002 32.1353 30.5903C32.2669 30.5803 32.3829 30.5005 32.4393 30.3814C32.4957 30.262 32.4836 30.1217 32.4077 30.0139L32.2083 29.7234C32.2061 29.7202 32.2061 29.7157 32.2036 29.7125C31.9764 29.3771 32.064 28.9211 32.3993 28.6938C32.7347 28.4667 33.1907 28.5544 33.418 28.8897ZM29.5958 25.9182L29.345 25.5538C29.0536 25.1138 28.5483 24.8646 28.0219 24.9007C27.4955 24.9368 27.0291 25.2528 26.8005 25.7285C26.5719 26.204 26.6163 26.7656 26.917 27.1993L27.2203 27.6445C26.3238 27.364 25.7855 26.4501 25.9748 25.5299C26.1642 24.61 27.0195 23.9827 27.9539 24.0791C28.8883 24.1752 29.598 24.9634 29.5958 25.9029V25.9182ZM29.5958 20.7695V21.1362C29.5958 21.3386 29.4316 21.5028 29.2292 21.5028H26.2958C26.0933 21.5028 25.9292 21.3386 25.9292 21.1362V20.7695H29.5958ZM23.7292 21.5028C23.7292 21.0978 24.0575 20.7695 24.4625 20.7695H25.1959V21.1362C25.1959 21.7436 25.6883 22.2361 26.2958 22.2361H29.2292C29.8367 22.2361 30.3291 21.7436 30.3291 21.1362V20.7695H31.0624C31.4675 20.7695 31.7958 21.0978 31.7958 21.5028V28.2465C31.668 28.3697 31.5641 28.5156 31.4893 28.6767L30.1777 26.7675C30.2779 26.4902 30.3293 26.1976 30.3291 25.9029C30.3291 24.4852 29.18 23.3362 27.7624 23.3362C26.3449 23.3362 25.1959 24.4852 25.1959 25.9029C25.1959 27.3203 26.3449 28.4694 27.7624 28.4694H27.7805L31.007 33.2061L30.5858 33.5295C29.8385 34.0354 29.8471 35.1699 30.3195 35.8684L31.0027 36.9029H24.4625C24.0575 36.9029 23.7292 36.5744 23.7292 36.1694V31.8186C24.1611 30.8802 24.4092 29.8679 24.4604 28.8362H24.4625C24.4625 27.7175 24.1168 27.0867 23.7292 26.7307V21.5028ZM21.2288 33.7887C21.2471 33.4441 21.2637 33.1382 21.2693 32.9398C21.2768 32.6303 21.2647 32.3081 21.253 31.996C21.2406 31.6708 21.2288 31.3639 21.2387 31.0742C21.2751 30.6333 21.3987 30.2041 21.6024 29.8115C21.7335 29.5275 21.8446 29.235 21.9354 28.9359C22.0811 28.4075 22.1864 27.8687 22.2503 27.3244C22.2691 27.1431 22.4209 27.0048 22.6031 27.0028H22.6629C22.817 27.0142 22.9653 27.0657 23.0934 27.152C23.1225 27.1834 23.1569 27.2094 23.195 27.2287C23.4625 27.4563 23.7292 27.9122 23.7292 28.8362C23.7269 28.8538 23.7284 28.8716 23.7336 28.8885C23.7967 29.9688 23.0155 31.7162 22.8319 31.8079C22.679 31.8828 22.5983 32.0535 22.6375 32.2191C22.6768 32.3846 22.8257 32.5009 22.9959 32.4991V36.1694C22.9959 36.9794 23.6525 37.6362 24.4625 37.6362H29.9127C29.5434 37.9737 29.1356 38.2665 28.6975 38.508C28.3492 38.7032 28.1323 39.0703 28.1291 39.4694V40.9361C28.1291 41.1387 27.965 41.3028 27.7624 41.3028H23.3625C23.16 41.3028 22.9959 41.1387 22.9959 40.9361V39.8541C22.9429 39.2388 22.7085 38.6532 22.3223 38.1715C22.2567 38.0718 22.1921 37.9734 22.132 37.8755C21.964 37.6031 21.8196 37.3989 21.6968 37.2211C21.356 36.8166 21.1697 36.3045 21.1709 35.7756C21.1424 35.3866 21.1904 34.5003 21.2288 33.7887Z" fill="white"/>
</svg>
