<svg width="63" height="63" viewBox="0 0 63 63" fill="none" xmlns="http://www.w3.org/2000/svg">
<circle cx="31.4648" cy="31.5181" r="31" fill="#7BBB66"/>
<path d="M41.7773 34.2681C41.3978 34.2681 41.0898 34.5761 41.0898 34.9556V39.7681H21.8398V31.5181H29.4023C29.7818 31.5181 30.0898 31.2101 30.0898 30.8306C30.0898 30.4511 29.7818 30.1431 29.4023 30.1431H21.8398V27.3931H29.4023C29.7818 27.3931 30.0898 27.0851 30.0898 26.7056C30.0898 26.3261 29.7818 26.0181 29.4023 26.0181H21.8398C21.0808 26.0181 20.4648 26.6341 20.4648 27.3931V39.7681C20.4648 40.5271 21.0808 41.1431 21.8398 41.1431H41.0898C41.8488 41.1431 42.4648 40.5271 42.4648 39.7681V34.9556C42.4648 34.5761 42.1568 34.2681 41.7773 34.2681Z" fill="white"/>
<path d="M26.6528 34.2676H23.9028C23.5233 34.2676 23.2153 34.5756 23.2153 34.9551C23.2153 35.3346 23.5233 35.6426 23.9028 35.6426H26.6528C27.0323 35.6426 27.3403 35.3346 27.3403 34.9551C27.3403 34.5756 27.0323 34.2676 26.6528 34.2676Z" fill="white"/>
<path d="M42.0487 24.0107L37.2362 21.9482C37.0616 21.8753 36.8677 21.8753 36.6931 21.9482L31.8806 24.0107C31.629 24.1193 31.4653 24.3682 31.4653 24.6432V27.3932C31.4653 31.1758 32.8637 33.3868 36.623 35.5525C36.7288 35.613 36.8471 35.6432 36.9653 35.6432C37.0836 35.6432 37.2018 35.613 37.3077 35.5525C41.067 33.3923 42.4653 31.1813 42.4653 27.3932V24.6432C42.4653 24.3682 42.3017 24.1193 42.0487 24.0107ZM41.0903 27.3932C41.0903 30.5681 40.0398 32.3157 36.9653 34.1582C33.8908 32.3116 32.8403 30.564 32.8403 27.3932V25.097L36.9653 23.3287L41.0903 25.097V27.3932Z" fill="white"/>
<path d="M39.4577 26.1676C39.1621 25.9338 38.7304 25.9792 38.4911 26.2748L36.3296 28.9781L35.4744 27.6993C35.2612 27.3831 34.8336 27.2992 34.5215 27.5082C34.2066 27.7186 34.12 28.1462 34.3304 28.4611L35.7054 30.5236C35.8277 30.7064 36.0285 30.8192 36.2485 30.8302C36.2581 30.8302 36.2691 30.8302 36.2774 30.8302C36.485 30.8302 36.683 30.7367 36.815 30.5717L39.565 27.1342C39.8015 26.8372 39.7547 26.4054 39.4577 26.1676Z" fill="white"/>
</svg>
