<svg width="63" height="63" viewBox="0 0 63 63" fill="none" xmlns="http://www.w3.org/2000/svg">
<circle cx="31.1826" cy="31.125" r="31" fill="#FFD400"/>
<path d="M40.6425 30.0666L40.0728 27.7878C40.2286 27.7547 40.3454 27.6165 40.3454 27.451V27.0835C40.3454 26.2858 39.6964 25.6368 38.8987 25.6368H36.3037V24.8789C36.3037 24.4863 35.9844 24.167 35.5918 24.167H22.3642C21.9717 24.167 21.6523 24.4863 21.6523 24.8789V31.1253C21.6523 31.3155 21.8065 31.4697 21.9968 31.4697C22.187 31.4697 22.3413 31.3155 22.3413 31.1253V24.8789C22.3413 24.8662 22.3516 24.856 22.3642 24.856H35.5918C35.6044 24.856 35.6147 24.8662 35.6147 24.8789V31.1254C35.6147 31.3156 35.7689 31.4698 35.9592 31.4698C36.1494 31.4698 36.3037 31.3156 36.3037 31.1254V30.7349H40.3672C40.3675 30.7349 40.3678 30.7349 40.3681 30.7349C40.3684 30.7349 40.3687 30.7349 40.369 30.7349C40.8691 30.7352 41.2936 31.0634 41.4395 31.5157H40.3683C40.1781 31.5157 40.0239 31.6699 40.0239 31.8602V32.595C40.0239 33.1902 40.508 33.6743 41.1032 33.6743H41.4936V35.19H40.5929C40.297 34.3356 39.4849 33.7202 38.5312 33.7202C37.5775 33.7202 36.7653 34.3356 36.4694 35.19H36.3036V32.595C36.3036 32.4047 36.1494 32.2505 35.9591 32.2505C35.7689 32.2505 35.6146 32.4047 35.6146 32.595V35.1899H28.4677C28.1718 34.3355 27.3597 33.7202 26.406 33.7202C25.4523 33.7202 24.6401 34.3355 24.3443 35.1899H22.3642C22.3516 35.1899 22.3413 35.1796 22.3413 35.167V34.4091H23.834C24.0242 34.4091 24.1785 34.2549 24.1785 34.0646C24.1785 33.8744 24.0242 33.7202 23.834 33.7202H20.5271C20.3369 33.7202 20.1826 33.8744 20.1826 34.0646C20.1826 34.2549 20.3368 34.4091 20.5271 34.4091H21.6524V35.167C21.6524 35.5595 21.9717 35.8789 22.3643 35.8789H24.225C24.2249 35.8865 24.2244 35.8941 24.2244 35.9018C24.2244 37.1048 25.2031 38.0834 26.406 38.0834C27.6089 38.0834 28.5876 37.1048 28.5876 35.9018C28.5876 35.8941 28.5871 35.8865 28.587 35.8789H36.3502C36.3501 35.8865 36.3496 35.8941 36.3496 35.9018C36.3496 37.1048 37.3283 38.0834 38.5312 38.0834C39.7341 38.0834 40.7128 37.1048 40.7128 35.9018C40.7128 35.8941 40.7123 35.8865 40.7122 35.8789H41.8381C42.0283 35.8789 42.1826 35.7246 42.1826 35.5344V31.8601C42.1826 30.9529 41.5133 30.1992 40.6425 30.0666ZM36.3037 26.3257H38.8987C39.3166 26.3257 39.6565 26.6657 39.6565 27.0835V27.1065H36.3037V26.3257ZM36.3037 30.0459V27.7954H39.3646L39.9272 30.0459H36.3037ZM26.406 37.3946C25.5829 37.3946 24.9133 36.725 24.9133 35.9019C24.9133 35.0788 25.5829 34.4092 26.406 34.4092C27.2291 34.4092 27.8987 35.0788 27.8987 35.9019C27.8987 36.725 27.2291 37.3946 26.406 37.3946ZM38.5313 37.3946C37.7082 37.3946 37.0386 36.725 37.0386 35.9019C37.0386 35.0788 37.7082 34.4092 38.5313 34.4092C39.3543 34.4092 40.024 35.0788 40.024 35.9019C40.024 36.725 39.3543 37.3946 38.5313 37.3946ZM41.4937 32.9854H41.1033C40.888 32.9854 40.7129 32.8102 40.7129 32.595V32.2046H41.4937V32.9854H41.4937Z" fill="white"/>
<path d="M34.49 33.7197H29.3459C29.1557 33.7197 29.0015 33.8739 29.0015 34.0642C29.0015 34.2545 29.1557 34.4087 29.3459 34.4087H34.49C34.6802 34.4087 34.8345 34.2545 34.8345 34.0642C34.8345 33.8739 34.6803 33.7197 34.49 33.7197Z" fill="white"/>
<path d="M32.1608 27.5745C32.0263 27.44 31.8082 27.44 31.6737 27.5745L28.6103 30.6378L27.0167 29.0442C26.8822 28.9097 26.6641 28.9097 26.5296 29.0442C26.3951 29.1788 26.3951 29.3968 26.5296 29.5314L28.3668 31.3685C28.434 31.4358 28.5222 31.4694 28.6103 31.4694C28.6985 31.4694 28.7867 31.4358 28.8539 31.3685L32.1608 28.0617C32.2953 27.9271 32.2953 27.709 32.1608 27.5745Z" fill="white"/>
</svg>
