<svg width="21" height="21" viewBox="0 0 21 21" fill="none" xmlns="http://www.w3.org/2000/svg">
<path d="M20.9951 20.5042V20.5034H21.0003V13.1684C21.0003 9.58008 20.1892 6.81592 15.7845 6.81592C13.667 6.81592 12.246 7.92258 11.6658 8.97175H11.6046V7.15092H7.42822V20.5034H11.777V13.8918C11.777 12.1509 12.1235 10.4676 14.3871 10.4676C16.6175 10.4676 16.6507 12.4543 16.6507 14.0034V20.5042H20.9951Z" fill="#545761"/>
<path d="M0.34668 7.15186H4.70068V20.5044H0.34668V7.15186Z" fill="#545761"/>
<path d="M2.52175 0.504395C1.12963 0.504395 0 1.58023 0 2.90606C0 4.23189 1.12963 5.33023 2.52175 5.33023C3.91387 5.33023 5.0435 4.23189 5.0435 2.90606C5.04262 1.58023 3.913 0.504395 2.52175 0.504395V0.504395Z" fill="#545761"/>
</svg>
