<svg width="26" height="26" viewBox="0 0 26 26" fill="none" xmlns="http://www.w3.org/2000/svg">
<circle cx="13" cy="13" r="13" fill="#00AFD7"/>
<path d="M18.7863 9.64046C18.7129 9.55422 18.5946 9.5318 18.4981 9.58579C18.3988 9.6342 18.2962 9.67404 18.191 9.70494C18.355 9.4797 18.4788 9.22387 18.5562 8.95032C18.5902 8.81267 18.5139 8.67142 18.3857 8.63484C18.3173 8.61531 18.2443 8.62921 18.1863 8.67283C17.821 8.88504 17.4328 9.04807 17.0303 9.1582C16.2018 8.31869 14.9399 8.21405 14.0011 8.90702C13.278 9.43192 12.8799 10.3391 12.9634 11.272C11.3958 11.1286 9.95364 10.2946 8.97953 8.96838C8.92949 8.90339 8.85377 8.86761 8.77533 8.87193C8.69579 8.87706 8.62381 8.92421 8.58316 8.99778C8.25256 9.57798 8.15678 10.2779 8.31796 10.9356C8.40061 11.2736 8.54229 11.5916 8.73547 11.8729C8.64845 11.8271 8.56656 11.7709 8.49141 11.7052C8.38838 11.6155 8.23711 11.6324 8.15351 11.743C8.11883 11.789 8.09987 11.8463 8.09984 11.9054C8.11412 12.8596 8.60219 13.7329 9.37974 14.1955C9.27484 14.1817 9.17129 14.1579 9.07033 14.1243C8.94329 14.0833 8.80932 14.1606 8.7711 14.297C8.75443 14.3565 8.75833 14.4205 8.78207 14.4771C9.11954 15.2887 9.79421 15.8815 10.602 16.0761C9.83239 16.5423 8.9462 16.7381 8.06766 16.6363C7.95375 16.6207 7.84583 16.695 7.81158 16.8127C7.77627 16.9294 7.82248 17.0567 7.92209 17.117C8.99779 17.8032 10.2215 18.1765 11.4725 18.2002C12.6728 18.1955 13.845 17.8106 14.8424 17.0938C16.7464 15.7372 17.9331 13.3016 17.7678 11.1224C18.1749 10.7989 18.528 10.4037 18.8123 9.95359C18.8707 9.85494 18.86 9.72646 18.7863 9.64046Z" fill="white"/>
</svg>
